<svg xmlns="http://www.w3.org/2000/svg" width="150" height="150" viewBox="0 0 150 150">
  <g fill="#2D2F33" fill-rule="evenodd" transform="translate(26 17)">
    <path d="M16.256,81.216 L16.256,92 L17.648,92 L17.648,86.944 L22.864,86.944 L22.864,92 L24.272,92 L24.272,81.216 L22.864,81.216 L22.864,85.728 L17.648,85.728 L17.648,81.216 L16.256,81.216 Z M29.92,84.08 C32.144,84.08 33.648,85.696 33.648,88.064 C33.648,90.928 31.664,92.176 29.792,92.176 C27.696,92.176 26.08,90.64 26.08,88.192 C26.08,85.6 27.776,84.08 29.92,84.08 Z M29.888,85.136 C28.224,85.136 27.504,86.672 27.504,88.144 C27.504,89.84 28.48,91.12 29.856,91.12 C31.2,91.12 32.208,89.856 32.208,88.112 C32.208,86.8 31.552,85.136 29.888,85.136 Z M34.88,91.632 C35.424,91.952 36.208,92.16 37.056,92.16 C38.896,92.16 39.952,91.2 39.952,89.84 C39.952,88.688 39.264,88.016 37.92,87.504 C36.912,87.12 36.448,86.832 36.448,86.192 C36.448,85.616 36.912,85.136 37.744,85.136 C38.464,85.136 39.024,85.392 39.328,85.584 L39.68,84.56 C39.248,84.304 38.56,84.08 37.776,84.08 C36.112,84.08 35.104,85.104 35.104,86.352 C35.104,87.28 35.76,88.048 37.152,88.544 C38.192,88.928 38.592,89.296 38.592,89.968 C38.592,90.608 38.112,91.12 37.088,91.12 C36.384,91.12 35.648,90.832 35.232,90.56 L34.88,91.632 Z M42.08,82.4 L42.08,84.256 L40.88,84.256 L40.88,85.328 L42.08,85.328 L42.08,89.552 C42.08,90.464 42.224,91.152 42.624,91.568 C42.96,91.952 43.488,92.16 44.144,92.16 C44.688,92.16 45.12,92.08 45.392,91.968 L45.328,90.912 C45.152,90.96 44.88,91.008 44.512,91.008 C43.728,91.008 43.456,90.464 43.456,89.504 L43.456,85.328 L45.472,85.328 L45.472,84.256 L43.456,84.256 L43.456,82.032 L42.08,82.4 Z M53.28,88.384 L47.84,88.384 C47.872,90.288 49.088,91.072 50.496,91.072 C51.504,91.072 52.112,90.896 52.64,90.672 L52.88,91.68 C52.384,91.904 51.536,92.16 50.304,92.16 C47.92,92.16 46.496,90.592 46.496,88.256 C46.496,85.92 47.872,84.08 50.128,84.08 C52.656,84.08 53.328,86.304 53.328,87.728 C53.328,88.016 53.296,88.24 53.28,88.384 Z M47.856,87.376 L51.968,87.376 C51.984,86.48 51.6,85.088 50.016,85.088 C48.592,85.088 47.968,86.4 47.856,87.376 Z M60.352,80.64 L61.76,80.64 L61.76,90 C61.76,90.688 61.776,91.472 61.824,92 L60.56,92 L60.496,90.656 L60.464,90.656 C60.032,91.52 59.088,92.176 57.824,92.176 C55.952,92.176 54.512,90.592 54.512,88.24 C54.496,85.664 56.096,84.08 57.984,84.08 C59.168,84.08 59.968,84.64 60.32,85.264 L60.352,85.264 L60.352,80.64 Z M60.352,88.752 L60.352,87.408 C60.352,87.232 60.336,86.992 60.288,86.816 C60.08,85.92 59.312,85.184 58.256,85.184 C56.8,85.184 55.936,86.464 55.936,88.176 C55.936,89.744 56.704,91.04 58.224,91.04 C59.168,91.04 60.032,90.416 60.288,89.36 C60.336,89.168 60.352,88.976 60.352,88.752 Z M68.64,92 L67.424,92 C67.456,91.472 67.488,90.688 67.488,90 L67.488,80.64 L68.88,80.64 L68.88,85.504 L68.912,85.504 C69.408,84.64 70.304,84.08 71.552,84.08 C73.472,84.08 74.832,85.68 74.816,88.032 C74.816,90.8 73.072,92.176 71.344,92.176 C70.224,92.176 69.328,91.744 68.752,90.72 L68.704,90.72 L68.64,92 Z M68.88,87.504 L68.88,88.896 C68.88,89.072 68.912,89.248 68.944,89.408 C69.216,90.384 70.032,91.056 71.056,91.056 C72.528,91.056 73.408,89.856 73.408,88.08 C73.408,86.528 72.608,85.2 71.104,85.2 C70.144,85.2 69.248,85.856 68.96,86.928 C68.928,87.088 68.88,87.28 68.88,87.504 Z M75.568,84.256 L78.432,91.392 C78.496,91.568 78.528,91.68 78.528,91.76 C78.528,91.84 78.48,91.952 78.416,92.096 C78.096,92.816 77.616,93.36 77.232,93.664 C76.816,94.016 76.352,94.24 76,94.352 L76.352,95.536 C76.704,95.472 77.392,95.232 78.08,94.624 C79.04,93.792 79.728,92.432 80.736,89.776 L82.848,84.256 L81.36,84.256 L79.824,88.8 C79.632,89.36 79.472,89.952 79.328,90.416 L79.296,90.416 C79.168,89.952 78.976,89.344 78.8,88.832 L77.104,84.256 L75.568,84.256 Z M9.04,107.792 C8.56,107.984 7.744,108.144 7.008,108.144 C4.832,108.144 3.552,106.784 3.552,104.624 C3.552,102.224 5.056,101.056 6.992,101.056 C7.856,101.056 8.544,101.248 9.04,101.456 L9.536,99.52 C9.104,99.296 8.144,99.04 6.88,99.04 C3.616,99.04 0.992,101.088 0.992,104.768 C0.992,107.84 2.912,110.16 6.64,110.16 C7.952,110.16 8.96,109.92 9.408,109.696 L9.04,107.792 Z M14.656,102 C17.056,102 18.656,103.648 18.656,106 C18.656,108.864 16.624,110.176 14.528,110.176 C12.24,110.176 10.48,108.672 10.48,106.144 C10.48,103.616 12.144,102 14.656,102 Z M14.592,103.728 C13.424,103.728 12.992,104.928 12.992,106.08 C12.992,107.424 13.552,108.432 14.592,108.432 C15.536,108.432 16.144,107.488 16.144,106.08 C16.144,104.912 15.696,103.728 14.592,103.728 Z M25.312,98.64 L27.744,98.64 L27.744,107.664 C27.744,108.544 27.776,109.472 27.808,110 L25.648,110 L25.536,108.848 L25.504,108.848 C25.008,109.728 24.064,110.176 23.056,110.176 C21.2,110.176 19.712,108.592 19.712,106.16 C19.696,103.52 21.344,102 23.216,102 C24.176,102 24.928,102.336 25.28,102.88 L25.312,102.88 L25.312,98.64 Z M25.312,106.512 L25.312,105.488 C25.312,105.36 25.296,105.184 25.28,105.056 C25.136,104.4 24.608,103.856 23.856,103.856 C22.752,103.856 22.176,104.848 22.176,106.08 C22.176,107.408 22.832,108.24 23.84,108.24 C24.544,108.24 25.104,107.76 25.248,107.072 C25.296,106.896 25.312,106.72 25.312,106.512 Z M32.128,110 L32.128,102.176 L29.696,102.176 L29.696,110 L32.128,110 Z M30.912,98.768 C30.128,98.768 29.616,99.296 29.632,100 C29.616,100.672 30.128,101.216 30.896,101.216 C31.696,101.216 32.208,100.672 32.208,100 C32.192,99.296 31.696,98.768 30.912,98.768 Z M34.08,110 L36.512,110 L36.512,105.488 C36.512,105.264 36.544,105.024 36.608,104.88 C36.768,104.432 37.168,103.968 37.84,103.968 C38.72,103.968 39.072,104.656 39.072,105.664 L39.072,110 L41.504,110 L41.504,105.36 C41.504,103.056 40.304,102 38.704,102 C37.408,102 36.608,102.752 36.288,103.248 L36.24,103.248 L36.128,102.176 L34.016,102.176 C34.048,102.864 34.08,103.696 34.08,104.672 L34.08,110 Z M48.816,102.176 L50.928,102.176 C50.896,102.672 50.864,103.328 50.864,104.496 L50.864,108.864 C50.864,110.368 50.56,111.6 49.68,112.384 C48.816,113.12 47.648,113.344 46.496,113.344 C45.472,113.344 44.384,113.136 43.68,112.736 L44.16,110.896 C44.656,111.184 45.52,111.488 46.432,111.488 C47.584,111.488 48.464,110.864 48.464,109.424 L48.464,108.912 L48.432,108.912 C47.968,109.568 47.216,109.936 46.32,109.936 C44.384,109.936 43.008,108.368 43.008,106.112 C43.008,103.6 44.64,102 46.56,102 C47.632,102 48.304,102.464 48.704,103.104 L48.736,103.104 L48.816,102.176 Z M48.432,106.512 L48.432,105.36 C48.432,105.2 48.416,105.04 48.384,104.912 C48.208,104.272 47.744,103.84 47.072,103.84 C46.192,103.84 45.472,104.64 45.472,106.064 C45.472,107.232 46.048,108.144 47.072,108.144 C47.696,108.144 48.192,107.728 48.352,107.152 C48.416,106.976 48.432,106.72 48.432,106.512 Z M56.128,110 L56.128,99.36 C56.88,99.232 57.936,99.136 59.424,99.136 C60.928,99.136 62,99.424 62.72,100 C63.408,100.544 63.872,101.44 63.872,102.496 C63.872,103.552 63.52,104.448 62.88,105.056 C62.048,105.84 60.816,106.192 59.376,106.192 C59.056,106.192 58.768,106.176 58.544,106.144 L58.544,110 L56.128,110 Z M58.544,101.072 L58.544,104.256 C58.752,104.304 59.008,104.32 59.36,104.32 C60.656,104.32 61.456,103.664 61.456,102.56 C61.456,101.568 60.768,100.976 59.552,100.976 C59.056,100.976 58.72,101.024 58.544,101.072 Z M71.984,110 L69.792,110 L69.648,109.216 L69.6,109.216 C69.088,109.84 68.288,110.176 67.36,110.176 C65.776,110.176 64.832,109.024 64.832,107.776 C64.832,105.744 66.656,104.768 69.424,104.784 L69.424,104.672 C69.424,104.256 69.2,103.664 68,103.664 C67.2,103.664 66.352,103.936 65.84,104.256 L65.392,102.688 C65.936,102.384 67.008,102 68.432,102 C71.04,102 71.872,103.536 71.872,105.376 L71.872,108.096 C71.872,108.848 71.904,109.568 71.984,110 Z M69.504,107.152 L69.504,106.304 C68.224,106.288 67.232,106.592 67.232,107.536 C67.232,108.16 67.648,108.464 68.192,108.464 C68.8,108.464 69.296,108.064 69.456,107.568 C69.488,107.44 69.504,107.296 69.504,107.152 Z M79.152,102.176 L81.264,102.176 C81.232,102.672 81.2,103.328 81.2,104.496 L81.2,108.864 C81.2,110.368 80.896,111.6 80.016,112.384 C79.152,113.12 77.984,113.344 76.832,113.344 C75.808,113.344 74.72,113.136 74.016,112.736 L74.496,110.896 C74.992,111.184 75.856,111.488 76.768,111.488 C77.92,111.488 78.8,110.864 78.8,109.424 L78.8,108.912 L78.768,108.912 C78.304,109.568 77.552,109.936 76.656,109.936 C74.72,109.936 73.344,108.368 73.344,106.112 C73.344,103.6 74.976,102 76.896,102 C77.968,102 78.64,102.464 79.04,103.104 L79.072,103.104 L79.152,102.176 Z M78.768,106.512 L78.768,105.36 C78.768,105.2 78.752,105.04 78.72,104.912 C78.544,104.272 78.08,103.84 77.408,103.84 C76.528,103.84 75.808,104.64 75.808,106.064 C75.808,107.232 76.384,108.144 77.408,108.144 C78.032,108.144 78.528,107.728 78.688,107.152 C78.752,106.976 78.768,106.72 78.768,106.512 Z M90.064,106.864 L85.024,106.864 C85.104,107.872 86.096,108.352 87.232,108.352 C88.064,108.352 88.736,108.24 89.392,108.032 L89.712,109.68 C88.912,110 87.936,110.16 86.88,110.16 C84.224,110.16 82.704,108.624 82.704,106.176 C82.704,104.192 83.936,102 86.656,102 C89.184,102 90.144,103.968 90.144,105.904 C90.144,106.32 90.096,106.688 90.064,106.864 Z M85.008,105.2 L87.888,105.2 C87.888,104.608 87.632,103.616 86.512,103.616 C85.488,103.616 85.072,104.544 85.008,105.2 Z M91.152,109.616 C91.744,109.936 92.656,110.16 93.68,110.16 C95.92,110.16 97.072,109.088 97.072,107.632 C97.056,106.48 96.432,105.728 94.944,105.216 C93.984,104.88 93.68,104.688 93.68,104.32 C93.68,103.92 94.016,103.68 94.608,103.68 C95.28,103.68 95.952,103.936 96.304,104.128 L96.736,102.448 C96.256,102.208 95.44,102 94.528,102 C92.592,102 91.344,103.104 91.344,104.56 C91.328,105.488 91.952,106.368 93.568,106.912 C94.48,107.216 94.72,107.408 94.72,107.808 C94.72,108.208 94.416,108.464 93.68,108.464 C92.96,108.464 92.032,108.144 91.584,107.872 L91.152,109.616 Z"/>
    <path fill-rule="nonzero" d="M89.1693215,29.3689403 C86.6232436,29.3689403 84.3918297,30.9858866 83.1443278,33.4110121 C78.8998862,24.1960053 70.0705084,15.6586935 59.1582428,12.1432607 C53.2700341,9.79101822 49.1353726,5.27638195 48.6246307,0 C48.1133017,5.27638195 43.9786403,9.79101822 38.0910186,12.1432607 C27.178753,15.6586935 18.3493752,24.1960053 14.1049336,33.4110121 C12.8574317,30.9858866 10.6260178,29.3689403 8.07993992,29.3689403 C4.17012235,29.3689403 1,33.1800198 1,37.8803903 C1,42.5813486 4.16953529,46.3924281 8.07993992,46.3924281 C9.26932287,46.3924281 10.3894328,46.0380048 11.3733448,45.4149721 C11.70973,60.6786863 28.250724,70.5866701 48.6252178,70.6131196 C68.9997116,70.5866701 85.5407055,60.6786863 85.8770907,45.4149721 C86.8610028,46.0380048 87.9811127,46.3924281 89.1704956,46.3924281 C93.0803132,46.3924281 96.2504355,42.5813486 96.2504355,37.8803903 C96.2486744,33.1800198 93.0791391,29.3689403 89.1693215,29.3689403 Z M11.2982012,40.5406225 C10.9670995,41.7661162 9.49240555,42.288053 8.00538334,41.7067517 C6.51777407,41.1254504 5.58023974,39.6613235 5.91134141,38.4358299 C6.24244308,37.2103362 7.71713703,36.6883994 9.2047463,37.2697007 C10.6917685,37.851002 11.6293028,39.3151289 11.2982012,40.5406225 Z M48.6240437,66.3641539 C32.28265,66.3382922 19.0485633,58.6279682 19.0485633,47.589709 C19.0485633,47.3587166 19.0567821,47.1294876 19.0679362,46.9008464 C19.0714586,46.8256122 19.075568,46.7503781 19.0808516,46.6751439 C19.0908316,46.518798 19.104921,46.3636276 19.1201846,46.2090449 C19.1413187,46.0015633 19.1653881,45.7940816 19.1959153,45.5883632 C19.1988506,45.5677914 19.2017858,45.5472196 19.2047211,45.5272355 C19.5334746,43.3577885 20.3759052,40.0468985 21.6480636,38.1390077 C24.7037093,33.7131242 30.1545586,30.7648863 36.3732819,30.7648863 C41.1601667,30.7648863 45.4891449,32.5152556 48.6246307,35.3382992 C51.7601165,32.5152556 56.0890947,30.7648863 60.8759795,30.7648863 C67.0947028,30.7648863 72.544965,33.7131242 75.6011978,38.1390077 C76.8733562,40.0468985 77.7151998,43.3577885 78.0445403,45.5272355 C78.0474756,45.5478073 78.0504109,45.5677914 78.0533462,45.5883632 C78.0838733,45.7940816 78.1079427,46.0015633 78.1290769,46.2090449 C78.1443404,46.3642153 78.1584299,46.5193857 78.1684099,46.6751439 C78.1731063,46.7503781 78.1772158,46.8256122 78.1813252,46.9008464 C78.1924793,47.1294876 78.2006982,47.3587166 78.2006982,47.589709 C78.2001111,58.6279682 64.9660244,66.3388799 48.6240437,66.3641539 Z M89.2438781,41.7067517 C87.7562688,42.288053 86.2821619,41.7655284 85.9504732,40.5406225 C85.6187845,39.3157167 86.5569059,37.851002 88.0445151,37.2697007 C89.5321244,36.6883994 91.0062313,37.210924 91.33792,38.4358299 C91.6684346,39.6613235 90.7309003,41.1260382 89.2438781,41.7067517 Z M30.1416413,43.2208388 C29.2843927,43.2208388 28.5894555,42.3853308 28.5894555,41.3546795 C28.5894555,40.3240281 29.2843927,39.4885201 30.1416413,39.4885201 C30.9988899,39.4885201 31.6938271,40.3240281 31.6938271,41.3546795 C31.6938271,42.3853308 30.9988899,43.2208388 30.1416413,43.2208388 Z M67.1087921,43.2237547 C66.2515436,43.2237547 65.5566063,42.3882467 65.5566063,41.3575953 C65.5566063,40.326944 66.2515436,39.491436 67.1087921,39.491436 C67.9660407,39.491436 68.660978,40.326944 68.660978,41.3575953 C68.660978,42.3882467 67.9660407,43.2237547 67.1087921,43.2237547 Z"/>
  </g>
</svg>
