<?xml version="1.0" encoding="UTF-8"?>
<svg width="513px" height="513px" viewBox="0 0 513 513" version="1.1" xmlns="http://www.w3.org/2000/svg" xmlns:xlink="http://www.w3.org/1999/xlink">
    <!-- Generator: Sketch 39.1 (31720) - http://www.bohemiancoding.com/sketch -->
    <title>logo</title>
    <desc>Created with Sketch.</desc>
    <defs>
        <rect id="path-1" x="0" y="0" width="513" height="513"></rect>
    </defs>
    <g id="Page-1" stroke="none" stroke-width="1" fill="none" fill-rule="evenodd">
        <g id="logo">
            <mask id="mask-2" fill="white">
                <use xlink:href="#path-1"></use>
            </mask>
            <use id="Mask" fill-opacity="0" fill="#D8D8D8" xlink:href="#path-1"></use>
            <g mask="url(#mask-2)">
                <g transform="translate(57.000000, 26.000000)">
                    <polygon id="path3384" fill="#222222" points="200.4 0 0.4 115.5 0 345.7 199.6 460.4 399.6 344.9 400 114.7"></polygon>
                    <path d="M202.238947,124 C170.792861,124 145.881027,134.542385 127.911834,156.017615 C111.167815,175.54055 103,200.529908 103,231.376147 C103,262.222385 111.167815,287.211743 127.911834,306.34422 C145.472636,326.648073 169.97608,336.8 201.830556,336.8 C227.967563,336.8 248.79549,330.162202 264.722729,317.277064 C281.058358,304.001468 291.268126,284.088073 296.168815,258.317798 L263.497556,258.317798 C258.596868,293.068624 237.768941,310.639266 201.830556,310.639266 C180.594239,310.639266 164.258609,303.22055 153.23206,289.164037 C141.797119,275.107523 136.48804,255.584587 136.48804,230.985688 C136.48804,206.386789 142.20551,186.863853 153.64045,172.416881 C165.483782,157.57945 181.819411,150.160734 202.238947,150.160734 C218.982967,150.160734 232.459861,153.674862 243.07802,161.484037 C253.287788,169.293211 259.82204,181.006972 262.680775,196.625321 L294.943643,196.625321 C291.268126,172.026422 281.466749,153.674862 265.131119,141.570642 C249.203881,129.856881 228.375954,124 202.238947,124 L202.238947,124 Z" id="c" fill="#FFFFFF"></path>
                </g>
            </g>
        </g>
    </g>
</svg>